<?xml version="1.0" standalone="no"?>
<!DOCTYPE svg PUBLIC "-//W3C//DTD SVG 20010904//EN"
 "http://www.w3.org/TR/2001/REC-SVG-20010904/DTD/svg10.dtd">
<svg version="1.0" xmlns="http://www.w3.org/2000/svg"
 width="1400.000000pt" height="1400.000000pt" viewBox="0 0 1400.000000 1400.000000"
 preserveAspectRatio="xMidYMid meet">
<metadata>
Created by potrace 1.14, written by Peter Selinger 2001-2017
</metadata>
<g transform="translate(0.000000,1400.000000) scale(0.100000,-0.100000)"
fill="#000000" stroke="none">
<path d="M0 7000 l0 -7000 7000 0 7000 0 0 7000 0 7000 -7000 0 -7000 0 0
-7000z m8410 3530 c504 -53 902 -397 1038 -899 25 -94 26 -103 30 -495 2 -219
0 -396 -5 -394 -37 18 -66 30 -113 48 -30 12 -64 30 -75 40 -11 9 -38 23 -60
30 -33 11 -134 60 -185 90 -27 16 -84 41 -140 62 -30 11 -62 26 -70 33 -8 7
-44 23 -80 35 -36 13 -74 31 -85 41 -11 10 -47 27 -80 40 -33 12 -69 30 -80
40 -12 10 -47 28 -80 39 -32 11 -66 26 -74 34 -9 7 -55 27 -102 44 -47 17
-103 42 -123 56 -20 13 -60 32 -89 42 -29 9 -59 22 -67 30 -8 7 -42 22 -75 34
-33 13 -69 31 -80 41 -12 10 -48 28 -80 39 -32 11 -68 29 -80 39 -11 10 -60
33 -110 50 -49 18 -97 38 -105 45 -8 7 -39 21 -67 31 -36 13 -62 31 -83 56
-36 45 -134 95 -204 105 -27 4 -63 15 -80 24 -17 10 -49 23 -71 30 -22 7 -49
21 -60 31 -12 10 -36 24 -55 30 -19 7 -46 20 -59 31 -13 10 -29 18 -37 18 -7
0 -25 10 -41 23 -15 13 -50 32 -78 42 -50 18 -118 50 -185 86 -19 10 -66 30
-105 46 -38 15 -86 39 -105 54 -19 14 -46 30 -60 34 -14 4 -32 13 -40 20 -8 8
-42 23 -75 36 -33 12 -73 33 -88 45 -16 13 -35 24 -42 24 -7 0 -26 11 -42 24
-16 14 -43 28 -59 33 -56 15 2460 28 2606 13z m-3075 -615 c203 -47 333 -86
505 -152 330 -126 653 -303 920 -504 l83 -62 -89 -18 c-143 -29 -318 -99 -419
-168 -16 -12 -33 -21 -36 -21 -4 0 -19 30 -34 68 -23 54 -28 83 -29 154 -1
101 -16 129 -87 166 -35 19 -55 23 -100 19 -65 -6 -138 -35 -192 -78 l-38 -31
-117 111 c-243 228 -557 551 -537 551 11 0 88 -16 170 -35z m1547 -192 c-2
-43 -6 -79 -7 -81 -2 -2 -13 2 -25 8 -50 27 -45 106 9 135 14 8 26 14 26 15 0
0 -1 -35 -3 -77z m1228 -633 c0 -60 -2 -110 -5 -110 -3 0 -19 21 -35 47 -52
81 -36 165 33 172 4 1 7 -48 7 -109z m-1328 -495 c-5 -80 -20 -82 -21 -3 -1
31 17 94 24 86 2 -2 0 -39 -3 -83z m898 -212 c-1 -72 -2 -76 -16 -58 -24 32
-27 59 -10 99 8 20 17 36 20 36 4 0 6 -35 6 -77z m1010 -420 c-1 -144 -1 -147
-18 -118 -21 38 -23 185 -3 233 7 17 15 32 17 32 2 0 4 -66 4 -147z m-1243
-95 c-2 -13 -4 -3 -4 22 0 25 2 35 4 23 2 -13 2 -33 0 -45z m702 -652 c23 -82
41 -156 41 -163 0 -20 -17 -8 -109 79 l-81 77 52 80 c28 44 53 79 54 78 1 -1
21 -69 43 -151z m-4140 -2571 c130 -31 235 -113 289 -225 50 -106 54 -99 -78
-131 -63 -15 -115 -26 -115 -26 0 1 -13 28 -29 60 -35 70 -89 112 -163 127
-167 35 -301 -67 -334 -255 -15 -85 -6 -271 15 -341 35 -111 117 -181 226
-191 77 -7 138 10 189 53 38 33 91 125 91 159 0 27 23 26 130 -8 122 -39 121
-37 69 -146 -57 -122 -146 -203 -264 -240 -204 -64 -410 -18 -550 122 -69 69
-102 126 -136 237 -20 63 -23 96 -23 210 0 216 45 343 163 461 103 102 216
147 371 148 47 0 114 -6 149 -14z m1215 -5 c257 -65 397 -273 397 -585 0 -197
-42 -321 -147 -434 -126 -135 -326 -195 -532 -157 -211 38 -353 160 -419 359
-24 73 -27 97 -27 227 0 162 13 229 66 334 36 71 143 183 206 215 119 61 312
78 456 41z m4361 -580 l0 -585 -112 -3 -113 -3 0 421 0 420 -62 -46 c-62 -46
-190 -114 -215 -114 -10 0 -13 25 -13 100 l0 100 36 15 c59 24 168 101 213
150 22 24 51 65 63 90 l22 46 91 -3 90 -3 0 -585z m830 559 c68 -25 151 -100
188 -167 105 -193 100 -620 -8 -808 -36 -61 -127 -139 -189 -163 -208 -77
-409 3 -466 187 -11 35 -20 68 -20 72 0 4 33 11 73 14 39 4 88 10 108 13 34 5
36 3 47 -34 33 -110 171 -124 238 -23 25 37 54 148 54 208 l0 33 -33 -25 c-18
-14 -50 -32 -70 -41 -48 -20 -151 -19 -211 1 -69 24 -156 108 -192 186 -27 58
-29 72 -29 178 1 145 21 205 100 286 106 108 260 139 410 83z m-4356 -317 c63
-185 129 -377 147 -426 l31 -89 142 426 143 427 124 0 c68 0 124 -2 124 -5 0
-6 -389 -1093 -405 -1132 l-14 -33 -119 0 c-84 0 -122 4 -129 13 -9 12 -413
1137 -413 1150 0 4 57 7 128 7 l127 0 114 -338z m1061 -247 l0 -586 -117 3
-118 3 -3 583 -2 582 120 0 120 0 0 -585z m848 570 c86 -20 137 -48 197 -109
65 -65 118 -172 141 -285 23 -116 15 -317 -16 -416 -54 -173 -150 -271 -315
-321 -52 -16 -98 -19 -345 -19 l-285 0 -3 583 -2 582 282 0 c215 0 298 -4 346
-15z m962 -730 l0 -115 -220 0 -220 0 0 115 0 115 220 0 220 0 0 -115z"/>
<path d="M4983 4450 c-94 -20 -176 -91 -214 -186 -20 -52 -23 -76 -24 -199 0
-111 4 -151 18 -193 26 -72 83 -141 148 -177 49 -27 62 -30 149 -30 108 0 147
15 213 81 55 55 85 126 98 227 21 163 -15 318 -92 396 -67 67 -195 102 -296
81z"/>
<path d="M10214 4446 c-68 -30 -100 -107 -91 -223 9 -122 62 -186 154 -186 47
0 82 20 117 67 25 33 35 167 17 227 -15 49 -56 98 -98 115 -40 17 -59 17 -99
0z"/>
<path d="M7580 4055 l0 -388 154 6 c172 6 221 20 268 75 51 61 63 119 63 313
l0 176 -35 68 c-30 58 -43 72 -90 99 -52 29 -58 30 -207 34 l-153 4 0 -387z"/>
</g>
</svg>
